<?xml version="1.0" encoding="UTF-8" standalone="no"?>
<svg
   viewBox="0 0 738.36 502.2"
   version="1.1"
   id="svg106"
   sodipodi:docname="advace-shipping-woocommerce.svg"
   inkscape:version="1.3.2 (091e20e, 2023-11-25, custom)"
   xmlns:inkscape="http://www.inkscape.org/namespaces/inkscape"
   xmlns:sodipodi="http://sodipodi.sourceforge.net/DTD/sodipodi-0.dtd"
   xmlns="http://www.w3.org/2000/svg"
   xmlns:svg="http://www.w3.org/2000/svg" 
   xmlns:xlink="http://www.w3.org/1999/xlink">
   <defs>
    <animate xlink:href="#path98" attributeName="fill" values="#55df6d;#f6b69f;#a19ff6;#6755df" dur="4s" repeatCount="indefinite"></animate>
      <animate xlink:href="#path99" attributeName="fill" values="#a19ff6;#f6b69f;#6755df;#55df6d" dur="4s" repeatCount="indefinite"></animate>
       <animate xlink:href="#path100" attributeName="fill" values="#55df6d;#f6b69f;#a19ff6;#6755df" dur="4s" repeatCount="indefinite"></animate>
      <animate xlink:href="#path101" attributeName="fill" values="#a19ff6;#f6b69f;#6755df;#55df6d" dur="4s" repeatCount="indefinite"></animate>
  </defs>
  <sodipodi:namedview
     id="namedview106"
     pagecolor="#ffffff"
     bordercolor="#111111"
     borderopacity="1"
     inkscape:showpageshadow="0"
     inkscape:pageopacity="0"
     inkscape:pagecheckerboard="1"
     inkscape:deskcolor="#d1d1d1"
     inkscape:zoom="2.3317403"
     inkscape:cx="369.2521"
     inkscape:cy="251.10001"
     inkscape:window-width="2560"
     inkscape:window-height="1406"
     inkscape:window-x="-11"
     inkscape:window-y="-11"
     inkscape:window-maximized="1"
     inkscape:current-layer="svg106" />
  <defs
     id="defs1">
    <style
       id="style1">
      .cls-1 {
        fill: #55b6df;
      }

      .cls-1, .cls-2, .cls-3, .cls-4, .cls-5, .cls-6, .cls-7, .cls-8, .cls-9, .cls-10 {
        stroke-width: 0px;
      }

      .cls-2 {
        fill: #23b3de;
      }

      .cls-3 {
        fill: #d4e3ee;
      }

      .cls-4 {
        fill: #89d8f4;
      }

      .cls-5 {
        fill: #9fdbf6;
      }

      .cls-6 {
        fill: #fff;
      }

      .cls-7 {
        fill: #f90;
      }

      .cls-8 {
        fill: #eaf2f9;
      }

      .cls-9 {
        fill: #004882;
      }

      .cls-10 {
        fill: #00487b;
      }
    </style>
  </defs>
  <g
     id="BG">
    <path
       class="cls-8"
       d="m16.14,234.78c36.01-67.87,100.67-13.7,165.66-25.94,50.1-9.43,27.85-88.03,64.65-109.1,49.53-28.35,56.49,21.61,134.71,5.54C421.61,96.98,407.84,4.16,489.67.15c129.56-6.36,56.59,193.33,126.9,205.46,104.5,18.02,139.36,84.62,113.74,134.14-29.7,57.38-61.5,59.39-118.28,38.21-98.09-36.59-53.16,84.41-147.51,92.73-62.85,5.54-84.84-39.3-185.09-46.85-62.8-4.73-76.46,13.41-150.96,5.62-111.06-11.61-155.16-113.94-112.33-194.68Z"
       id="path1" />
  </g>
  <g
     id="Back_Screens"
     data-name="Back Screens">
    <g
       id="g13">
      <path
         class="cls-10"
         d="m71.52,132.38c37.46-12.02,72.52-20.22,103.08-25.84,30.24-5.55,97.35-13.59,114.13-12.09,8.14,43.21,14.32,122.53,14.32,122.53,0,0-96.37,7.42-212.63,42.16-14.38-76.33-18.9-126.76-18.9-126.76Z"
         id="path3"
         style="fill:#0487bf;fill-opacity:1" />
      <path
         class="cls-1"
         d="m114.99,238.22l-14.9-92.81c-.13-.82.43-1.59,1.24-1.72.82-.13,1.59.43,1.72,1.24l14.36,89.42c12.29-3.66,90.73-26.39,161.6-32.34.82-.08,1.55.54,1.62,1.37s-.54,1.55-1.37,1.62c-76.42,6.42-161.77,32.45-162.62,32.72l-1.65.51Z"
         id="path4" />
      <path
         class="cls-1"
         d="m90.53,156.8c-1.49.6-2.66,2-2.33,6s4.38,3.96,5.66,3c1.91-1.44,4.45-12.11-3.33-8.99Z"
         id="path5" />
      <path
         class="cls-1"
         d="m94.38,178.34c-1.49.6-2.66,2-2.33,6s4.38,3.96,5.66,3c1.91-1.44,4.45-12.11-3.33-8.99Z"
         id="path6" />
      <path
         class="cls-1"
         d="m98.23,199.87c-1.49.6-2.66,2-2.33,6,.33,4,4.38,3.96,5.66,3,1.91-1.44,4.45-12.11-3.33-8.99Z"
         id="path7" />
      <path
         class="cls-1"
         d="m102.24,224.31c-1.49.6-2.66,2-2.33,6,.33,4,4.38,3.96,5.66,3,1.91-1.44,4.45-12.11-3.33-8.99Z"
         id="path8" />
      <path
         class="cls-1"
         d="m268.36,193.13c-20.81,0-26.83-15.73-32.22-29.8-4.2-10.96-8.16-21.31-18.46-23.45-8.79-1.82-16.26-.14-22.21,5.01-8.87,7.68-12.3,21.26-11.73,30.62.46,7.56-5.01,14.71-12.73,16.62-8.93,2.22-17.18-2.92-22.08-13.74-4.86-10.74-12.79-15.77-21.75-13.82-9.72,2.12-17.6,11.75-17.56,21.46,0,.83-.67,1.5-1.49,1.51-.85-.04-1.5-.67-1.51-1.49-.04-11.05,8.89-22,19.92-24.4,4.95-1.08,17.31-1.73,25.12,15.52,4.25,9.39,11.22,13.9,18.62,12.07,6.34-1.57,10.83-7.39,10.46-13.53-.61-10.08,3.11-24.72,12.76-33.07,6.69-5.79,15.03-7.7,24.78-5.68,11.91,2.47,16.35,14.08,20.65,25.31,6.26,16.36,12.18,31.8,38.28,27,.82-.15,1.6.39,1.75,1.2.15.81-.39,1.6-1.2,1.75-3.44.63-6.56.93-9.41.93Z"
         id="path9"
         style="fill:#df557a;fill-opacity:1" />
      <path
         class="cls-1"
         d="m247.85,141.89c-.71,0-1.41-.01-2.08-.04l-1-.04-.34-.94c-2.84-7.81-5.6-26.21-5.71-26.99l-.19-1.31,1.28-.35c.95-.26,23.49-6.41,35.08-3.69l1.03.24,3.23,28.64-1.3.31c-.77.18-17.92,4.18-29.99,4.18Zm-.94-3.01c9.94.19,24.54-2.84,28.94-3.8l-2.69-23.85c-9.58-1.69-26.5,2.31-31.28,3.53.66,4.22,2.83,17.39,5.03,24.12Z"
         id="path10" />
      <path
         class="cls-1"
         d="m247.24,121.37c-.57,0-1.11-.33-1.37-.88-.34-.75-.02-1.64.74-1.99.45-.21,11.12-5.01,23.59-2.91.82.14,1.37.91,1.23,1.73s-.92,1.36-1.73,1.23c-11.53-1.95-21.73,2.63-21.84,2.67-.2.09-.41.14-.62.14Z"
         id="path11" />
      <path
         class="cls-1"
         d="m248.1,128.01c-.57,0-1.11-.33-1.37-.88-.34-.75-.02-1.64.74-1.99.45-.21,11.12-5.02,23.59-2.91.82.14,1.37.91,1.23,1.73s-.92,1.36-1.73,1.23c-11.53-1.95-21.73,2.63-21.84,2.67-.2.09-.41.14-.62.14Z"
         id="path12" />
      <path
         class="cls-1"
         d="m249.24,135.24c-.57,0-1.11-.33-1.37-.88-.34-.75-.02-1.64.74-1.99.45-.21,11.12-5.02,23.59-2.91.82.14,1.37.91,1.23,1.73-.14.82-.91,1.37-1.73,1.23-11.53-1.95-21.73,2.63-21.84,2.67-.2.09-.41.14-.62.14Z"
         id="path13" />
    </g>
    <g
       id="g24">
      <path
         class="cls-1"
         d="m542.73,236.28c-32.78-10.62-97.12-20.12-119.31-24.1-.03-.04,8.6-88.89,14-120.74,27.44,1.41,63.02,4.21,98.82,9.74,32.03,4.95,96.76,22.02,116.85,32.54-3.74,16.7-14.26,55.41-19.43,73.76-4.77,16.93-16.36,56.74-16.36,56.74-10.57-5.18-55.63-21.81-74.57-27.95Z"
         id="path14" />
      <path
         class="cls-5"
         d="m504.21,129.79l-21.78,23.23-27.87-11.37c4.36-11.27,14.63-20,27.39-20.62,0,0,13.12-.14,22.26,8.75Z"
         id="path15"
         style="fill:#f6b69f;fill-opacity:1" />
      <path
         class="cls-5"
         d="m511.17,172.07l-25.34-16.59,21.78-23.23c4.33,4.2,7.77,10.43,8.5,19.65.6,7.57-1.37,14.48-4.94,20.17Z"
         id="path16"
         style="fill:#9f9ff6;fill-opacity:1" />
      <path
         class="cls-5"
         d="m509.91,177.24c-7.84,12.53-23.46,19.11-36.72,13.53l11.38-30.12,25.34,16.59Z"
         id="path17"
         style="fill:#9ff6a9;fill-opacity:1" />
      <path
         class="cls-5"
         d="m469.41,189.97c-3.57-1.5-6.98-3.88-10.01-7.27l21.38-22.85-11.38,30.12Z"
         id="path18"
         style="fill:#f69fb0;fill-opacity:1" />
      <path
         class="cls-5"
         d="m479.58,156.06l-21.38,22.85c-9.44-10.54-10.63-23.53-6.49-34.22l27.87,11.37Z"
         id="path19"
         style="fill:#9ff6a3;fill-opacity:1" />
      <path
         class="cls-5"
         d="m517.39,203.59l-1.28-.09c-2.67-.19-65.48-4.81-75.05-13.81l-.5-.47.02-.68c.29-8.55,0-13.5,0-13.55v-.1s0-.1,0-.1c.17-2.12,4.14-52.14,7.41-63.95l.29-1.05,1.09-.05c16.61-.72,69.08,4.75,79.87,12.84l.56.42.04.7c1.1,21-11.63,76.29-12.18,78.63l-.29,1.25Zm-73.77-15.67c8.54,6.49,53.02,11.1,71.43,12.49,1.89-8.38,12.54-56.44,11.85-75.82-10.66-6.88-57.91-12.39-76.26-11.89-3.08,13.02-6.83,59.72-7.03,62.23.04.76.26,5.32.02,13Z"
         id="path20" />
      <path
         class="cls-5"
         d="m611.88,225.26c-.16,0-.32-.02-.47-.08-25.62-8.49-68.04-21.34-79.93-21.97-.83-.04-1.46-.75-1.42-1.58.04-.83.77-1.46,1.58-1.42,13.14.7,58.54,14.78,80.72,22.12.79.26,1.21,1.11.95,1.9-.21.63-.79,1.03-1.42,1.03Z"
         id="path21" />
      <path
         class="cls-5"
         d="m617.2,209.59c-.18,0-.36-.03-.54-.1-36.33-13.98-67.81-21.13-81.68-21.87-.83-.04-1.46-.75-1.42-1.58.04-.83.77-1.45,1.58-1.42,14.1.75,45.97,7.97,82.6,22.06.77.3,1.16,1.17.86,1.94-.23.6-.8.96-1.4.96Z"
         id="path22" />
      <path
         class="cls-5"
         d="m631.16,168.02l-1.57-.67c-44.58-18.92-65.91-19.79-81.48-20.43-1.77-.07-3.48-.14-5.15-.23l-1.68-.09,3.02-17.95,1.34.07c1.69.09,3.44.16,5.27.24,16.5.67,39.1,1.58,84.08,20.66l1.22.52-5.05,17.89Zm-86.36-24.24c1.12.05,2.26.1,3.43.15,15.62.64,36.94,1.52,80.96,20.01l3.41-12.07c-43.66-18.37-65.69-19.26-81.81-19.91-1.37-.06-2.69-.11-3.98-.17l-2.02,12Z"
         id="path23" />
      <path
         class="cls-5"
         d="m622.31,196.92l-1.6-.73c-44.73-20.49-64.05-21.84-79.57-22.92-1.04-.07-2.06-.14-3.07-.22l-1.69-.13,3.51-17.86,1.33.1c1.87.14,3.8.24,5.82.35,15.51.84,36.76,2,79.43,21.54l1.16.53-5.32,19.33Zm-82.33-26.74c.45.03.91.06,1.37.1,15.58,1.08,34.92,2.43,79.01,22.45l3.71-13.47c-41.38-18.8-62.05-19.92-77.18-20.75-1.57-.09-3.08-.17-4.55-.27l-2.34,11.94Z"
         id="path24" />
    </g>
  </g>
  <g
     id="Character">
    <path
       class="cls-6"
       d="m627.26,195.11c-7.31-.41-24.09-1.57-39.59,7.35.21-2.52.09-5.36-.68-8.26-2.66-10.02-8.91-8.83-7.7,1.1-.21,10.2-5.91,17.66-8.63,20.65-.75.82-1.27,1.31-1.4,1.42l-.03.03c-9.51,9.91-10.29,15.99-10.29,15.99-1.33-2.34-2.75-4-4.45-4l-7.15,3.87-10.59,6.52c-.37,1.62-.6,3.19-.71,4.71l-50.4,27.69-7.41-13.9c-4.96-9.67-13.27-26.56-21.87-42.01-.03-.04-.04-.08-.07-.12-.02-.03-.03-.07-.05-.1-2.21-3.96-4.43-7.84-6.62-11.46-.09-.15-.19-.3-.27-.44-5.16-8.5-10.12-15.6-14.19-19.39h0c-.36-.34-.7-.64-1.04-.92,0,0-.21-.29-.68-.79t0,0c-.78-.8-2.27-2.13-4.77-3.64,0,0-.02,0-.03-.02-5.96-3.59-17.66-8.2-39.12-9.17,2.1-10.06-8.14-17.74-8.53-18.03.08.16,1,2.23,0,5.36v-38.98c6.96,2.58,12.32-4.04,12-10.36-.15-3.14-2.1-5.96-4.79-7.36,3.98-6.7,5.67-13.24,6.4-17.69.56-3.47.54-5.66.54-5.66-.31-6.89-4.06-10.32-8.72-10.94-2.58-.36-5.45.16-8.16,1.43-.95-14.97-19.5-19.02-27.1-12.35-4.99-9.51-23.54-27.34-41.84-19.26-18.31,8.08-21.16,30.42-10.22,45.4,2.25,3.08,5.14,5.07,8.37,6.25-.33,8.16-.76,25.66.89,36.52.25,1.63.54,3.1.89,4.36.28,1.04.6,1.95.96,2.69.15.32.31.63.46.95.93,1.89,1.96,3.9,3.15,5.9,2.92,4.94,6.74,9.81,12.11,12.64l.36,19.13c-2.4-7.37-1.19-11.27-1.11-11.52-.35.16-7.93,3.92-7.55,13.95.06,2.1.21,4.07.44,5.93-4.8.61-13.35,3.17-23,6.64-1.61.57-3.25,1.18-4.9,1.8-14.78,5.56-30.99,12.72-39.81,18-.26.15-.51.31-.76.46h0c-9.46,5.82-18.06,12.04-24.21,17.26l-49.88-6.72h0l-20.52-2.76c-.74-1.32-1.61-2.64-2.62-3.93l-19.6-5.3c-4.06,1.68-4.59,5.84-4.62,6.07-1.63-.33-7.13-2.51-14.97-4.34,0,0-.02,0-.02,0-3.12-.73-6.48-1.45-9.84-2.06-2.5-.45-5-.86-7.4-1.16-5.35-.69-10.16-.92-13.33-.28-.25.05-.53.11-.86.17-8.54,1.79-41.24,9.23-37.37,13.48,4.66,5.11,8.26,2.37,18.87.15,4.77-.99,20.51,1.1,20.51,1.1,0,0-19.57,6.33-16.37,15.82,1.27,3.75,3.55,5.12,6.77,4.23.54,6.22,4.46,6.36,8.44,4.67,0,0,.87,4.47,5.61,3.91,1.69-.2,3.88-1.04,6.7-2.95.65.04,19.38,1.21,23.25-2.05.78-.03,1.87-.04,3.07-.05-.57,3.98.66,7.29.66,7.29,1.41,1.17,2.65.74,4.81,1.78,4.71,1.6,12.12,5.06,19.16,7.08,1.2.35,2.75-1.62,3.05-2.31,0,0,.36-.44.94-1.27,26.5,8.95,60.39,21.27,80.51,23.6,21,2.43,46.94-5.46,46.94-5.46,0,0-6.3,33.59-7.88,69.38l61.86,23.82,94.58-20.08c.63-11.71-1.01-60.43-2.52-72.33,0,0,34.01,58,54.65,58,10.16,0,14.92-1.57,32.51-13.41,7.28-4.9,14.72-10.33,21.94-15.85,9.6-7.35,18.78-14.88,26.63-21.63.56.5,2.81,1.63,3.75.8,5.52-4.81,10.78-11.08,14.36-14.52,1.51-1.87,2.82-1.99,3.6-3.65,0,0-.83-4.35-4.64-10.94l7.54-7.38c4.47-1.11,11.91-1.69,18.02-10,2.95.15,8.37-.86,15.98-4.76,2.43-3.27-1.33-5.7-1.33-5.7,6.56-4.02-.64-8.25-.64-8.25,2.24-1.35,4.22-16.14-16.4-6.36.58-.35,10.33-5.99,27.31-5.81,9.55.1,8.76-7.17.68-7.62Zm-499.08,15.1c-.03-.05-.05-.09-.08-.14.09.06.12.1.08.14Z"
       id="path26" />
    <path
       class="cls-3"
       d="m336.47,328.27c0-1.43,1.16-2.58,2.58-2.58s2.58,1.15,2.58,2.58-1.16,2.58-2.58,2.58-2.58-1.16-2.58-2.58Z"
       id="path27" />
    <path
       class="cls-3"
       d="m337.39,299.04c0-1.42,1.16-2.58,2.57-2.58s2.58,1.16,2.58,2.58-1.16,2.58-2.58,2.58-2.57-1.15-2.57-2.58Z"
       id="path28" />
    <path
       class="cls-3"
       d="m339.09,273.01c0-1.43,1.16-2.58,2.58-2.58s2.58,1.16,2.58,2.58-1.16,2.58-2.58,2.58-2.58-1.16-2.58-2.58Z"
       id="path29" />
    <path
       class="cls-3"
       d="m339.96,246.98c0-1.43,1.16-2.58,2.58-2.58s2.58,1.15,2.58,2.58-1.15,2.58-2.58,2.58-2.58-1.16-2.58-2.58Z"
       id="path30" />
    <path
       class="cls-3"
       d="m340.83,220.94c0-1.43,1.16-2.58,2.58-2.58s2.58,1.15,2.58,2.58-1.16,2.58-2.58,2.58-2.58-1.15-2.58-2.58Z"
       id="path31" />
    <path
       class="cls-3"
       d="m85.13,225.43c1.37.34,1.86,1.3.47,3.19l-.47-3.19Z"
       id="path32" />
    <path
       class="cls-3"
       d="m128.11,210.08c.09.06.12.1.08.14-.03-.05-.05-.09-.08-.14Z"
       id="path33" />
    <path
       class="cls-4"
       d="m85.6,228.62l-.47-3.19c1.37.34,1.86,1.3.47,3.19Z"
       id="path34" />
    <path
       class="cls-4"
       d="m128.18,210.21c-.03-.05-.05-.09-.08-.14.09.06.12.1.08.14Z"
       id="path35" />
    <path
       class="cls-2"
       d="m116.54,227.04c-.83,0-1.5-.67-1.5-1.5h0c0-.84.67-1.51,1.5-1.51s1.5.67,1.5,1.5-.67,1.5-1.5,1.5Z"
       id="path36" />
    <path
       class="cls-9"
       d="m120.55,227.81c-1.39,0-2.95-.23-4.57-.87-.05-.02-.1-.04-.14-.06-3.1-1.27-5.74-3.82-7.84-7.6-2.58.12-4.25,1.32-5.86,2.49-2.11,1.53-4.51,3.27-8.21,1.41-2.05-1.03-3.01-3.06-2.59-5.43.98-5.47,8.88-12.07,21.6-13.52.89-.1,1.68.6,1.68,1.49,0,.8-.61,1.45-1.4,1.5-11.81,1.36-18.27,7.4-18.93,11.06-.25,1.42.44,1.95.99,2.22,1.99,1,3,.37,5.1-1.16,1.99-1.44,4.47-3.24,8.59-3.06.54.02,1.02.33,1.27.81,1.86,3.62,4.16,5.99,6.84,7.05.05.02.09.04.14.06,3.99,1.52,7.61-.32,7.65-.34.73-.38,1.64-.1,2.02.64.38.73.11,1.63-.62,2.02-.14.07-2.49,1.29-5.71,1.29Z"
       id="path37" />
    <path
       class="cls-9"
       d="m336.24,155.04c-3.98,0-7.68-.89-11.05-2.66-4.78-2.52-8.94-6.83-12.7-13.2-1.26-2.11-2.32-4.22-3.2-6l-.46-.96c-.39-.8-.74-1.77-1.06-2.95-.35-1.26-.65-2.74-.92-4.53-1.71-11.28-1.2-29.5-.91-36.81.11-2.78.21-4.48.21-4.48,0-.05,0-.11.02-.16,2.45-14.72,16.34-16.15,47.53-18,9.52-.56,21.92,1.09,26.97,12.16,3.58,7.81,1.95,16.91.72,21.5,2.47-.85,5.09-.69,7.48.54,3.23,1.67,5.43,5.05,5.6,8.62.21,4.14-1.71,8.32-4.88,10.65-2.2,1.61-4.78,2.18-7.41,1.68-.28,1.61-.74,4.01-1.25,5.46-1.39,4.02-3.7,7.88-6.87,11.46-.55.62-1.5.68-2.12.13-.62-.55-.68-1.5-.13-2.12,2.91-3.28,5.02-6.8,6.28-10.45.71-2.03,1.38-6.55,1.39-6.59.07-.45.33-.84.72-1.07.39-.23.86-.27,1.29-.12,2.87,1.07,5.02.16,6.32-.8,2.34-1.72,3.82-4.97,3.66-8.08-.12-2.52-1.69-4.91-3.98-6.1-2.53-1.3-5.36-.88-7.76,1.16-.52.44-1.28.48-1.84.08-.56-.4-.78-1.12-.53-1.76.19-.49.38-1.01.56-1.56.97-2.92,3.83-13.09.02-21.39-3.49-7.64-11.59-11.14-24.07-10.41-32.11,1.9-42.71,3.52-44.73,15.42-.02.37-.1,1.96-.2,4.35-.3,7.22-.8,25.22.87,36.24.25,1.67.53,3.04.85,4.19.27,1,.56,1.81.86,2.43l.46.95c.85,1.72,1.88,3.76,3.09,5.79,3.47,5.88,7.24,9.82,11.52,12.08,3.75,1.98,7.83,2.68,12.48,2.15,6.6-.75,14.05-3.24,20.44-6.83.72-.4,1.64-.15,2.04.57.41.72.15,1.64-.57,2.04-6.83,3.84-14.49,6.39-21.58,7.2-1.07.12-2.13.18-3.17.18Z"
       id="path38" />
    <path
       class="cls-9"
       d="m380.97,159.01c-.83,0-1.5-.67-1.5-1.5v-38.98c0-.83.67-1.5,1.5-1.5s1.5.67,1.5,1.5v38.98c0,.83-.67,1.5-1.5,1.5Z"
       id="path39" />
    <g
       id="g41">
      <path
         class="cls-7"
         d="m394.58,83.13c-.73,4.45-2.42,10.99-6.4,17.69-1.87,3.13-4.22,6.3-7.21,9.29-1.75-1.97-3.31-4.12-4.69-6.37-2.47-4.03-4.35-8.35-5.78-12.36-2.11-5.96-3.2-11.25-3.67-13.92-3.8,9.74-18.78,11.64-24.73,2.38-4.71,4.91-22.19,12.67-34.66,8.14-3.23-1.17-6.12-3.17-8.37-6.25-10.93-14.98-8.08-37.32,10.22-45.4,18.3-8.08,36.85,9.74,41.84,19.26,7.61-6.66,26.15-2.62,27.1,12.35,2.71-1.27,5.58-1.79,8.16-1.43,4.66.62,8.41,4.06,8.72,10.94,0,0,.03,2.19-.54,5.66Z"
         id="path40"
         style="fill:#ff6900;fill-opacity:1" />
      <path
         class="cls-9"
         d="m380.97,111.61s-.03,0-.04,0c-.41-.01-.8-.19-1.08-.5-1.72-1.93-3.35-4.14-4.85-6.58-2.24-3.65-4.23-7.9-5.92-12.64-1.37-3.86-2.32-7.46-2.95-10.27-2.52,3.14-6.4,5.22-10.84,5.67-5.29.53-10.27-1.45-13.42-5.22-6.53,5.34-23.13,11.62-34.95,7.33-3.72-1.35-6.77-3.63-9.07-6.77-6.09-8.34-8.19-19.04-5.62-28.61,2.31-8.62,8.16-15.39,16.45-19.05,18.02-7.96,36.36,7.61,42.91,18.41,4.46-2.84,11.18-3.2,17.04-.76,5.95,2.47,9.82,7.22,10.85,13.21,2.42-.83,4.84-1.1,7.11-.79,5.95.8,9.7,5.42,10.01,12.36,0,.14.02,2.41-.56,5.97h0c-.73,4.48-2.47,11.28-6.59,18.22-2.1,3.52-4.6,6.74-7.44,9.59-.28.28-.66.44-1.06.44Zm-14.14-35.65s.1,0,.15,0c.67.07,1.21.57,1.33,1.23.46,2.6,1.54,7.84,3.61,13.68,1.62,4.54,3.52,8.61,5.65,12.08,1.09,1.78,2.26,3.43,3.48,4.92,2.2-2.37,4.17-5,5.86-7.83,3.88-6.53,5.52-12.94,6.21-17.16h0c.53-3.28.52-5.39.52-5.41-.25-5.48-2.88-8.86-7.42-9.47-2.26-.32-4.86.15-7.33,1.3-.45.21-.97.18-1.4-.07-.43-.25-.7-.7-.73-1.2-.36-5.75-3.74-10.37-9.25-12.66-5.44-2.26-11.9-1.7-15.37,1.34-.35.3-.81.43-1.26.35-.45-.08-.84-.37-1.05-.78-4.54-8.65-22.46-26.29-39.9-18.58-7.45,3.29-12.69,9.35-14.76,17.08-2.34,8.7-.41,18.45,5.14,26.06,1.94,2.65,4.52,4.57,7.67,5.72,11.81,4.29,28.76-3.29,33.06-7.77.32-.33.77-.5,1.23-.45.46.04.87.3,1.12.68,2.43,3.78,6.77,5.75,11.63,5.27,4.85-.48,8.84-3.31,10.43-7.38.23-.58.78-.96,1.4-.96Zm27.75,7.16h0,0Z"
         id="path41" />
    </g>
    <path
       class="cls-9"
       d="m330.2,123.87c-.37,0-.73-.14-1.01-.39-.39-.35-.56-.88-.46-1.39l3.42-18.09c.15-.81.93-1.35,1.75-1.19.81.15,1.35.94,1.19,1.75l-2.97,15.7,3.8-1.1s.09-.03.13-.04l.57-.16c.8-.23,1.63.24,1.85,1.04.23.8-.24,1.63-1.04,1.85l-.46.13s-.08.03-.12.04l-6.26,1.81c-.14.04-.28.06-.42.06Z"
       id="path42" />
    <path
       class="cls-9"
       d="m343.89,101.37c-.44,0-.88-.19-1.17-.56-.52-.65-.41-1.59.23-2.11,5.65-4.53,11.45-1.95,13.72.04.62.55.68,1.49.14,2.12-.55.62-1.49.69-2.11.14-.2-.17-4.8-4.02-9.87.04-.28.22-.61.33-.94.33Z"
       id="path43" />
    <path
       class="cls-9"
       d="m335.61,135.38c-.06,0-.09,0-.11,0-.83-.03-1.48-.72-1.45-1.55.03-.83.73-1.49,1.54-1.45.04,0,2.57.04,4.14-1.53.9-.89,1.34-2.2,1.31-3.88-.01-.83.65-1.51,1.48-1.52.82-.02,1.51.65,1.52,1.48.04,2.54-.71,4.59-2.22,6.08-2.29,2.26-5.56,2.37-6.21,2.37Z"
       id="path44" />
    <path
       class="cls-9"
       d="m325.15,101.37c-.42,0-.84-.18-1.14-.52-.04-.04-2.21-2.52-5-2.71-1.47-.1-2.85.45-4.23,1.68-.62.55-1.57.5-2.12-.12-.55-.62-.5-1.57.12-2.12,1.99-1.77,4.16-2.59,6.45-2.43,4.07.28,6.94,3.61,7.06,3.75.54.63.46,1.58-.17,2.11-.28.24-.63.36-.97.36Z"
       id="path45" />
    <circle
       class="cls-9"
       cx="346.83"
       cy="107.52"
       r="2.59"
       id="circle45" />
    <circle
       class="cls-9"
       cx="319.47"
       cy="106.86"
       r="2.59"
       id="circle46" />
    <path
       class="cls-9"
       d="m331.24,366.09c-.69,0-1.32-.48-1.47-1.19-.17-.81.35-1.61,1.16-1.78l93.44-19.84c.5-13.64-1.13-59.66-2.56-70.92-.1-.82.48-1.57,1.3-1.68.84-.1,1.57.48,1.68,1.3,1.48,11.69,3.18,60.54,2.53,72.61-.04.68-.52,1.25-1.19,1.39l-94.58,20.08c-.1.02-.21.03-.31.03Zm94.58-21.58h0,0Z"
       id="path46" />
    <path
       class="cls-9"
       d="m331.24,366.09c-.18,0-.36-.03-.54-.1l-61.86-23.82c-.6-.23-.99-.82-.96-1.47,1.33-30.08,6.04-58.91,7.48-67.22-6.89,1.88-27.58,6.89-45.22,4.85-17.51-2.03-45.12-11.47-69.48-19.81-3.88-1.33-7.68-2.63-11.34-3.86-.78-.26-1.21-1.12-.94-1.9.27-.79,1.12-1.21,1.9-.94,3.66,1.24,7.46,2.54,11.35,3.87,24.22,8.28,51.67,17.67,68.86,19.67,20.44,2.37,46.08-5.33,46.33-5.4.5-.15,1.05-.03,1.44.32.39.35.57.88.47,1.39-.06.33-6.17,33.22-7.81,68.1l58.82,22.65c.03-4.13.12-9.44.29-16.13,1.17-46.16,5.46-137.32,5.5-138.23.04-.83.71-1.47,1.57-1.43.83.04,1.47.74,1.43,1.57-.04.92-4.33,92.04-5.5,138.17-.2,7.91-.3,13.87-.3,18.24,0,.49-.24.96-.65,1.24-.25.17-.55.26-.85.26Z"
       id="path47" />
    <path
       class="cls-9"
       d="m225.35,224.2c-.07,0-.13,0-.2-.01l-49.83-6.71s-.04,0-.05,0l-20.52-2.77c-.82-.11-1.4-.87-1.29-1.69.11-.82.87-1.4,1.69-1.29l20.47,2.76s.04,0,.05,0l49.22,6.63c6.52-5.48,14.97-11.49,23.89-16.97.03-.02.07-.04.1-.06.21-.13.43-.26.65-.4,8.37-5.01,24.09-12.12,40.08-18.14,1.66-.62,3.31-1.23,4.93-1.81,10.42-3.75,18.7-6.13,23.31-6.71.82-.1,1.57.48,1.68,1.3.1.82-.48,1.57-1.3,1.68-4.4.56-12.45,2.89-22.68,6.56-1.61.57-3.24,1.18-4.89,1.79-15.83,5.95-31.36,12.97-39.56,17.88-.27.16-.51.31-.74.45-.04.02-.07.04-.11.06-8.86,5.45-17.58,11.67-23.93,17.07-.27.23-.62.36-.97.36Z"
       id="path48" />
    <path
       class="cls-9"
       d="m478.24,259.78c-.54,0-1.07-.3-1.34-.82-1.16-2.25-2.5-4.9-3.98-7.83-4.76-9.42-11.29-22.31-17.87-34.14-.01-.02-.09-.17-.11-.19-2.43-4.37-4.59-8.1-6.61-11.45-.08-.12-.19-.3-.28-.46-5.64-9.28-10.33-15.7-13.92-19.05-.34-.32-.66-.6-.98-.86-.1-.08-.19-.18-.27-.29h0s-.17-.22-.52-.6c0,0,0,0,0,0h0c-.77-.79-2.17-2.02-4.48-3.41-.02-.01-.04-.02-.06-.04-5.92-3.56-17.39-7.99-38.39-8.94-.83-.04-1.47-.74-1.43-1.57.04-.83.74-1.48,1.57-1.43,21.67.98,33.62,5.64,39.83,9.39.02.01.04.02.06.04,2.54,1.54,4.13,2.93,5.02,3.84.01.01.03.03.04.04.33.35.55.61.68.77.32.27.64.55.97.86,3.81,3.55,8.67,10.19,14.46,19.72.09.15.17.28.25.41,2.07,3.42,4.24,7.18,6.68,11.55.01.02.05.09.06.11,0,.01.06.1.06.11,6.61,11.88,13.15,24.81,17.92,34.25,1.48,2.92,2.81,5.56,3.97,7.81.38.74.09,1.64-.65,2.02-.22.11-.45.17-.68.17Z"
       id="path49" />
    <path
       class="cls-9"
       d="m477.96,331.68c-21.26,0-54.54-56.34-55.95-58.74-.42-.71-.18-1.63.54-2.05.71-.42,1.63-.18,2.05.54.08.14,8.6,14.61,19.5,28.87,14.2,18.57,25.91,28.39,33.86,28.39,9.68,0,14.05-1.29,31.67-13.14,6.76-4.55,14.12-9.87,21.87-15.8,8.8-6.74,17.98-14.2,26.56-21.58.57-.49,1.41-.48,1.97.01.33.29,1.42.78,1.86.72,3.37-2.95,6.64-6.44,9.53-9.53,1.68-1.8,3.27-3.5,4.62-4.8.65-.79,1.27-1.31,1.81-1.72-20.58-5-25.41-20.85-25.09-30.81l-4.7,2.54-10.52,6.47c-.7.44-1.63.21-2.06-.49-.43-.71-.21-1.63.49-2.06l10.59-6.52,7.22-3.91c.5-.27,1.11-.23,1.57.09.47.33.71.89.62,1.45-.15,1.04-3.38,25.55,25.04,30.85.46.08.85.38,1.06.79.21.41.22.9.02,1.32-.59,1.25-1.43,1.89-2.17,2.45-.55.42-1.06.81-1.63,1.51-.04.05-.08.09-.13.14-1.31,1.26-2.89,2.95-4.58,4.75-2.96,3.17-6.32,6.75-9.84,9.82-1.32,1.15-3.29.6-4.6-.08-8.38,7.18-17.3,14.41-25.85,20.96-7.8,5.97-15.21,11.32-22.02,15.91-17.91,12.05-22.92,13.66-33.35,13.66Z"
       id="path50" />
    <path
       class="cls-9"
       d="m485.65,273.68c-.14,0-.29-.02-.43-.06-.38-.11-.71-.38-.9-.73l-7.41-13.9c-.39-.73-.11-1.64.62-2.03.73-.39,1.64-.11,2.03.62l6.7,12.56,49.06-26.96c.73-.4,1.64-.13,2.04.59s.13,1.64-.59,2.04l-50.39,27.7c-.22.12-.47.19-.72.19Z"
       id="path51" />
    <path
       class="cls-9"
       d="m78.71,244.26c-1.14,0-2.14-.26-3.01-.79-1.78-1.07-2.82-3.15-3.08-6.18-.07-.83.54-1.55,1.37-1.62.83-.07,1.55.54,1.62,1.36.17,2.01.73,3.32,1.64,3.87,1.25.75,3.26.17,4.72-.45,1.33-.56,2.79-1.4,4.37-2.49.73-.5,1.45-1.05,2.15-1.63.1-.08.19-.14.28-.21,0,0,.09-.06.1-.07,2.41-1.69,3.79-3.17,4.16-3.86-.02,0-.05-.02-.08-.02-1.17-.32-3.75-.1-6.59.56-2.42.57-3.91,1.18-4.38,1.49-.09.08-.19.15-.29.21-.71.43-1.63.19-2.06-.52-.4-.68-.21-1.54.42-1.99.04-.03.08-.07.12-.1,1.37-.99,4.56-1.79,5.5-2.01,1.63-.38,5.67-1.19,8.06-.53,1.79.49,2.24,1.61,2.35,2.23.33,1.86-1.52,4.22-5.49,7-.03.02-.09.07-.16.11-.79.65-1.58,1.25-2.38,1.8-1.74,1.21-3.39,2.14-4.91,2.78-1.64.69-3.12,1.04-4.43,1.04Zm1.27-12.27s0,0,0,0c0,0,0,0,0,0Z"
       id="path52" />
    <path
       class="cls-9"
       d="m87.35,247.3c-4.14,0-5.91-3.3-6.28-5.17-.16-.81.37-1.6,1.18-1.76.81-.17,1.6.37,1.76,1.18.11.51.83,3.09,3.97,2.71,1.64-.19,3.67-1.1,6.03-2.7,1.39-.95,2.89-2.13,4.44-3.5.27-.24.45-.43.56-.58-1.52-.52-6.38-.19-8.48,1.07l-.12.08c-.65.51-1.62.43-2.13-.22-.52-.65-.44-1.57.21-2.09.08-.06.17-.12.26-.19.03-.03.14-.09.17-.12,2.8-1.72,10.86-2.82,12.8-.2.56.75,1.13,2.34-1.29,4.48-1.65,1.46-3.25,2.72-4.74,3.74-2.81,1.9-5.22,2.95-7.37,3.2-.34.04-.67.06-.98.06Z"
       id="path53" />
    <path
       class="cls-9"
       d="m103.02,244.57c-3.75,0-6.98-.19-8.26-.27-.81-.05-1.44-.74-1.41-1.55.03-.84.77-1.49,1.61-1.45,7.23.48,19.65.44,22.19-1.7.26-.22.58-.34.92-.35.79-.03,1.89-.04,3.11-.05,2.97,0,6.64.05,8.02.07h.46c.83.02,1.49.7,1.48,1.53-.01.82-.68,1.48-1.5,1.48h-.49c-1.37-.03-5.02-.08-7.96-.08-.96,0-1.86.02-2.57.04-2.93,1.9-9.87,2.33-15.6,2.33Z"
       id="path54" />
    <path
       class="cls-9"
       d="m72.35,238.92c-2.24,0-4.93-1.07-6.43-5.5-.72-2.12-.55-4.26.5-6.34,2.05-4.08,7.22-7.2,11.3-9.14-5.19-.52-11.66-.98-14.21-.45-2.33.49-4.32,1-6.07,1.45-6.23,1.61-9.98,2.58-14.22-2.06-.66-.72-.87-1.65-.58-2.53.57-1.76,3.08-4.1,17.41-8.2,9.47-2.71,19.44-4.83,21.35-5.23.33-.06.58-.11.81-.16,3.11-.63,7.76-.54,13.88.25,2.27.29,4.79.69,7.48,1.17,3.09.57,6.42,1.26,9.91,2.08.04,0,.08.02.12.03,5.18,1.21,9.3,2.56,12.04,3.45,1.3.42,2.33.76,2.8.86.08.02.16.04.23.07.2.04.57.12,1.06.23,1.62.34,4.33.91,6.22,1.43.8.22,1.27,1.04,1.05,1.84-.22.8-1.04,1.27-1.84,1.05-1.8-.49-4.46-1.05-6.04-1.38-.92-.19-1.28-.27-1.49-.34-.64-.15-1.58-.46-2.92-.9-2.7-.88-6.78-2.21-11.88-3.4h0s-.07-.02-.1-.03c-3.41-.79-6.67-1.48-9.69-2.03-2.64-.48-5.1-.87-7.32-1.15-5.8-.75-10.12-.85-12.84-.3-.29.06-.56.12-.88.18-18.46,3.87-34.42,8.8-36.34,11.2,2.92,3.07,5.2,2.49,11.06.97,1.78-.46,3.81-.98,6.21-1.49,4.96-1.03,20.36,1,21.01,1.08.69.09,1.23.65,1.3,1.35s-.36,1.35-1.03,1.56c-.12.04-12.1,3.98-15.07,9.88-.68,1.36-.79,2.68-.34,4.03,1.26,3.73,3.21,3.74,4.95,3.27,1.72-.47,3.82-1.72,6.24-3.72.03-.02.06-.04.08-.06.02-.01.03-.03.05-.04.8-.65,1.68-1.44,2.7-2.4.69-.65,1.23-1.24,1.61-1.76.29-.39.42-.66.48-.82-.03,0-.07-.02-.11-.03-2.27-.57-7.82,1.05-9.21,2.42-.59.58-1.54.57-2.12-.02-.58-.59-.57-1.54.02-2.12,2.22-2.18,8.97-3.97,12.04-3.19,1.46.37,2.04,1.2,2.27,1.83.39,1.08.07,2.28-.96,3.7-.5.68-1.14,1.39-1.97,2.17-1.05.99-1.97,1.81-2.82,2.51-.07.07-.15.13-.23.18-2.73,2.24-5.18,3.67-7.3,4.25-.61.17-1.36.3-2.16.3Zm7.63-6.93s0,0,0,0t0,0Zm.16-.12s0,0,0,0c0,0,0,0,0,0Zm4.92-4.88h0Zm43.04-16.91h0,0Z"
       id="path55" />
    <path
       class="cls-9"
       d="m337.04,209.62s-.03,0-.05,0c-.67-.02-1.24-.48-1.41-1.13l-8.04-31.35c-.21-.8.28-1.62,1.08-1.83.8-.21,1.62.28,1.83,1.08l6.76,26.35,8.19-25.17c.19-.6.74-1.01,1.36-1.03.62-.03,1.2.34,1.45.92.21.49,4.65,11.2,4.84,19.92,20.52-8.59,33.53-18.77,34.97-27.45,1.91-9.17-7.54-16.28-7.94-16.57-.67-.49-.81-1.43-.31-2.1.49-.67,1.43-.81,2.1-.31.47.34,11.39,8.57,9.11,19.54-2.38,14.37-28.01,26.15-38.92,30.55-.48.19-1.03.12-1.45-.18-.42-.31-.65-.81-.61-1.33.44-5.38-1.58-12.53-3.08-16.92l-8.45,25.97c-.2.62-.78,1.04-1.43,1.04Z"
       id="path56" />
    <path
       class="cls-9"
       d="m346.83,179.55c-.65,0-1.26-.43-1.44-1.09-.23-.8.24-1.63,1.04-1.85,22.99-6.5,30.47-13.63,32.69-18.46,1.4-3.05.62-5.09.51-5.33-.28-.57-.17-1.29.32-1.75.6-.57,1.55-.55,2.12.06.11.12.21.26.28.41.26.56,1.46,3.6-.5,7.87-4.51,9.79-21.3,16.33-34.6,20.09-.14.04-.27.06-.41.06Z"
       id="path57" />
    <path
       class="cls-9"
       d="m325.14,160.16c-.38,0-.77-.15-1.06-.44-.59-.59-.59-1.54,0-2.12.59-.59,1.54-.59,2.13,0,.59.59.59,1.53,0,2.12h0c-.29.3-.68.45-1.06.45Z"
       id="path58" />
    <path
       class="cls-9"
       d="m324.03,199.91c-.58,0-1.12-.34-1.37-.88-3.01-6.64-5.2-12.64-6.12-20.31h0c-.24-1.99-.39-4.03-.45-6.06-.22-5.67,1.98-9.49,3.86-11.69,2.17-2.53,4.46-3.62,4.56-3.66.54-.25,1.17-.16,1.62.23.45.39.62,1.01.44,1.57-.05.15-1.12,3.76,1.11,10.61,0,.03.02.06.02.08.65,2,1.54,4.12,2.64,6.3.19.38.21.83.05,1.22-.05.13-4.99,12.72-4.87,21.06.01.71-.48,1.33-1.17,1.49-.11.02-.22.04-.33.04Zm-4.51-21.55c.62,5.2,1.83,9.51,3.54,13.93,1.09-6.6,3.52-13.36,4.3-15.43-1.04-2.14-1.89-4.22-2.54-6.2,0-.03-.02-.06-.02-.08-1.21-3.74-1.53-6.65-1.53-8.72-1.98,1.86-4.39,5.26-4.18,10.71.06,1.96.2,3.91.43,5.81h0Z"
       id="path59" />
    <path
       class="cls-9"
       d="m326.26,170.18h-1.5l-.36-19.11c-.02-.83.64-1.51,1.47-1.53,0,0,.02,0,.03,0,.82,0,1.48.65,1.5,1.47l.36,19.13-1.5.04Z"
       id="path60" />
    <path
       class="cls-9"
       d="m346,220.94c0,1.42-1.16,2.58-2.58,2.58s-2.58-1.15-2.58-2.58,1.16-2.58,2.58-2.58,2.58,1.15,2.58,2.58Z"
       id="path61" />
    <path
       class="cls-9"
       d="m345.13,246.98c0,1.42-1.15,2.58-2.58,2.58s-2.58-1.16-2.58-2.58,1.16-2.58,2.58-2.58,2.58,1.15,2.58,2.58Z"
       id="path62" />
    <path
       class="cls-9"
       d="m344.26,273.01c0,1.43-1.16,2.58-2.58,2.58s-2.58-1.16-2.58-2.58,1.16-2.58,2.58-2.58,2.58,1.16,2.58,2.58Z"
       id="path63" />
    <path
       class="cls-9"
       d="m342.54,299.04c0,1.43-1.16,2.58-2.58,2.58s-2.57-1.15-2.57-2.58,1.16-2.58,2.57-2.58,2.58,1.16,2.58,2.58Z"
       id="path64" />
    <path
       class="cls-9"
       d="m341.63,328.27c0,1.42-1.16,2.58-2.58,2.58s-2.58-1.16-2.58-2.58,1.16-2.58,2.58-2.58,2.58,1.15,2.58,2.58Z"
       id="path65" />
    <path
       class="cls-9"
       d="m563.99,269.88c-2.08,0-3.77-1.69-3.77-3.77s1.69-3.77,3.77-3.77,3.77,1.69,3.77,3.77-1.69,3.77-3.77,3.77Zm0-4.54c-.42,0-.77.35-.77.77s.35.77.77.77.77-.35.77-.77-.35-.77-.77-.77Z"
       id="path66" />
    <path
       class="cls-9"
       d="m558.15,275.17c-2.08,0-3.77-1.69-3.77-3.77s1.69-3.77,3.77-3.77,3.77,1.69,3.77,3.77-1.69,3.77-3.77,3.77Zm0-4.54c-.42,0-.77.35-.77.77s.35.77.77.77.77-.35.77-.77-.35-.77-.77-.77Z"
       id="path67" />
    <path
       class="cls-9"
       d="m559.04,280.79c-.22,0-.45-.05-.67-.16-.29-.14-29.1-14.76-23.08-41.2.18-.81.99-1.31,1.8-1.13.81.18,1.31.99,1.13,1.8-5.49,24.12,21.22,37.71,21.49,37.85.74.37,1.04,1.27.68,2.01-.26.53-.79.83-1.34.83Z"
       id="path68" />
    <g
       id="g75">
      <path
         class="cls-9"
         d="m568.99,259.44c-.35,0-.71-.12-.99-.38-.62-.55-.68-1.49-.13-2.11h0s.05-.06.07-.08l14.65-14.34c.19-.19.43-.32.69-.38.58-.14,1.21-.28,1.89-.43,4.34-.93,10.29-2.21,15.28-9.01.49-.67,1.43-.81,2.1-.32.67.49.81,1.43.32,2.1-5.67,7.71-12.53,9.19-17.07,10.16-.49.11-.96.21-1.4.31l-14.34,14.04c-.29.29-.68.44-1.06.44Z"
         id="path69" />
      <path
         class="cls-9"
         d="m599.53,228.73c-1.18,0-2.13-.22-2.89-.76-.51-.37-1.15-1.07-1.29-2.31-.14-.99-.47-6.01,6.95-7.88.8-.2,1.62.29,1.82,1.09.2.8-.29,1.62-1.09,1.82-5.18,1.3-4.79,4.17-4.73,4.49,0,.04.02.11.02.14,0,.07.03.19.07.22.76.55,4.25-.17,7.05-.74,1.02-.21,2.09-.43,3.21-.64,2.07-.38,5.51-1.46,6.86-2.29.94-.57,2.05-1.46,2.04-2.43-.01-1.28-1.8-2.73-2.66-3.24-.71-.42-.95-1.34-.54-2.05.42-.71,1.34-.95,2.05-.54.42.25,4.11,2.5,4.14,5.8.02,1.91-1.15,3.6-3.48,5.02-1.88,1.15-5.78,2.29-7.88,2.68-1.1.21-2.16.43-3.16.63-2.69.55-4.84,1-6.53,1Z"
         id="path70" />
      <path
         class="cls-9"
         d="m602.23,235.13c-1.69,0-2.94-.31-3.71-.85-.56-.39-.89-.93-.96-1.52-.2-.59-.44-1.79.12-3.19.74-1.83,2.57-3.27,5.42-4.29.78-.28,1.64.13,1.92.91.28.78-.13,1.64-.91,1.92-1.96.7-3.25,1.62-3.65,2.59-.25.62-.07,1.1-.07,1.11.02.04.03.07.05.11,1.16.38,6.33.72,16.17-4.24.29-.47.39-.91.32-1.33-.16-.92-1.1-1.72-1.45-1.95-.69-.46-.88-1.38-.43-2.07.45-.69,1.37-.89,2.06-.44.24.15,2.34,1.57,2.76,3.92.17.93.12,2.37-1.04,3.94-.14.18-.32.34-.52.44-6.95,3.55-12.51,4.95-16.1,4.95Zm15.42-6.28h0,0Z"
         id="path71" />
      <path
         class="cls-9"
         d="m554.92,240.18c-.32,0-.63-.1-.91-.3-.66-.5-.79-1.44-.29-2.1l3.81-5.03c.5-2.29,3.86-13.11,24.38-28.3,16.81-12.45,36.53-11.34,44.96-10.86l.47.03c5.16.29,7.78,3.07,7.69,5.66-.08,2.33-2.35,5.01-8.46,4.95-4.13-.05-7.79.26-11,.76.83.55,1.53,1.3,2.07,2.31,1.68,3.12.73,7.73-1.19,8.89-1.77,1.07-4.16,1.99-6.92,2.65,0,0-.02,0-.03,0-.09.03-.3.1-.59.19-4.76,1.58-10.56,3.15-13.22,1.21-.65-.47-1.41-1.36-1.39-2.92,0-.04,0-.07,0-.11.55-6.54,12.28-7.16,13.61-7.2.82-.04,1.52.62,1.55,1.44.03.83-.62,1.52-1.44,1.55-3.37.13-10.39,1.37-10.73,4.4,0,.3.1.36.16.41.53.38,2.6.99,10.5-1.63.44-.15.75-.24.87-.27h.04c2.44-.59,4.52-1.39,6.02-2.29.46-.46,1.19-3.39-.11-5.25-1.84-2.64-7.27-2.08-14.9,1.54-.72.34-1.58.06-1.96-.64-.38-.7-.14-1.58.54-1.99.41-.25,10.08-6.05,27.31-6.05.28,0,.55,0,.83,0,3.91.05,5.4-1.24,5.43-2.05.03-.92-1.49-2.38-4.86-2.57l-.47-.03c-8.1-.46-27.06-1.53-43,10.28-21.46,15.9-23.26,26.62-23.27,26.72-.04.25-.14.5-.29.7l-4.03,5.31c-.29.39-.74.59-1.2.59Z"
         id="path72" />
      <g
         id="g74">
        <path
           class="cls-6"
           d="m569.24,217.39s9.79-8.68,10.06-22.1c-1.21-9.92,5.04-11.11,7.7-1.09,2.47,9.29-1.77,17.8-1.77,17.8,0,0,4.43,14.57-5.02,19.05"
           id="path73" />
        <path
           class="cls-9"
           d="m580.21,232.54c-.56,0-1.1-.32-1.36-.86-.35-.75-.04-1.64.71-2,8.19-3.88,4.27-17.13,4.23-17.26-.11-.37-.08-.76.09-1.1.04-.08,3.94-8.14,1.66-16.74-1.26-4.74-3.08-5.94-3.62-5.84-.5.1-1.7,1.78-1.14,6.36,0,.07.01.14.01.21-.29,13.92-10.15,22.82-10.57,23.19-.62.55-1.57.49-2.12-.13-.55-.62-.49-1.57.13-2.12.12-.11,9.25-8.41,9.56-20.9-.75-6.39,1.34-9.13,3.56-9.56,2.29-.44,5.34,1.44,7.09,8.01,2.25,8.47-.71,16.22-1.62,18.31.76,2.9,3.52,15.78-5.97,20.28-.21.1-.43.14-.64.14Z"
           id="path74" />
      </g>
    </g>
    <path
       class="cls-9"
       d="m558.95,234.88c-.52,0-1.03-.27-1.3-.76-1.22-2.15-2.28-3.23-3.15-3.23s-1.5-.67-1.5-1.5.67-1.5,1.5-1.5c2.7,0,4.49,2.54,5.75,4.75.41.72.16,1.64-.56,2.05-.23.13-.49.2-.74.2Z"
       id="path75" />
    <path
       class="cls-9"
       d="m580.75,263.43c-.7,0-1.33-.5-1.47-1.22,0-.04-.86-4.23-4.47-10.48-.41-.72-.17-1.63.55-2.05.72-.41,1.63-.17,2.05.55,3.89,6.73,4.78,11.22,4.81,11.41.16.81-.38,1.6-1.19,1.75-.09.02-.19.03-.28.03Z"
       id="path76" />
    <g
       id="g80">
      <path
         class="cls-9"
         d="m146.11,258.38c-.24,0-.48-.03-.72-.1-4.49-1.29-9.05-3.12-13.07-4.73-2.28-.92-4.44-1.78-6.16-2.37-.06-.02-.12-.04-.17-.07-.81-.39-1.44-.53-2.11-.68-.91-.2-1.94-.42-3-1.3-.36-.3-.56-.74-.54-1.21.02-.46.25-.89.63-1.17,23.61-16.9,10.99-41.04,10.44-42.06-.28-.53-.23-1.17.14-1.64.37-.47.99-.67,1.57-.52l19.6,5.3c.31.08.59.27.79.53,16,20.58-1.79,44.89-3.36,46.96-.53,1.02-2.15,3.06-4.03,3.06Zm-18.89-10.01c1.77.61,3.93,1.48,6.22,2.39,3.92,1.57,8.37,3.36,12.67,4.6.41-.15,1.2-1.04,1.38-1.44.05-.11.12-.24.2-.33.19-.23,18.39-23.53,3.75-42.99l-16.09-4.35c2.8,7.32,7.74,26.64-10.5,41.32.66.15,1.44.35,2.37.79Z"
         id="path77" />
      <path
         class="cls-9"
         d="m138.79,248.45c-.43,0-.87-.08-1.29-.23-.95-.34-1.7-1.04-2.13-1.95h0c-.43-.91-.47-1.94-.13-2.88.34-.95,1.04-1.7,1.95-2.13.91-.43,1.93-.47,2.88-.13.95.34,1.7,1.04,2.13,1.95s.47,1.94.13,2.88c-.34.95-1.04,1.7-1.95,2.13-.51.24-1.05.36-1.59.36Zm-.7-3.45c.09.19.24.33.44.4.19.07.4.06.59-.03.19-.09.33-.24.4-.44s.06-.4-.03-.59c-.09-.19-.24-.33-.44-.4-.19-.07-.4-.06-.59.03-.19.09-.33.24-.4.44s-.06.4.03.59Z"
         id="path78" />
      <path
         class="cls-9"
         d="m146.33,250.77c-1.42,0-2.78-.81-3.42-2.17h0c-.88-1.88-.06-4.13,1.82-5.01,1.88-.88,4.13-.06,5.01,1.82.43.91.47,1.94.13,2.88-.34.95-1.04,1.7-1.95,2.13-.51.24-1.06.35-1.59.35Zm0-4.54c-.11,0-.22.02-.32.07-.38.18-.55.64-.37,1.02h0c.18.39.64.55,1.02.37.19-.09.33-.24.4-.43s.06-.4-.03-.59c-.13-.28-.41-.44-.7-.44Z"
         id="path79" />
      <path
         class="cls-9"
         d="m121.84,249.48c-.61,0-1.18-.37-1.41-.98-.06-.15-1.36-3.72-.74-8.02.12-.82.88-1.39,1.7-1.27.82.12,1.39.88,1.27,1.7-.51,3.56.57,6.52.58,6.55.29.78-.1,1.64-.88,1.93-.17.06-.35.09-.52.09Z"
         id="path80" />
    </g>
    <path
       class="cls-9"
       d="m128.11,211.57c-.05,0-.11,0-.16,0-.82-.09-1.42-.82-1.33-1.64.02-.21.59-5.27,5.54-7.32.76-.31,1.64.05,1.96.81.32.77-.05,1.64-.81,1.96-3.27,1.35-3.69,4.72-3.7,4.86-.09.77-.74,1.33-1.49,1.33Z"
       id="path81" />
  </g>
  <g
     id="Front_Screens"
     data-name="Front Screens">
    <g
       id="g89">
      <path
         class="cls-4"
         d="m21.93,220.08l24.31,152.58s52.69,79.85,141.04,86.4c-2.29-32.42-14.78-135.27-14.78-135.27,0,0-80.86-17.14-150.57-103.72Z"
         id="path82" />
      <g
         id="g88">
        <path
           class="cls-1"
           d="m167.61,441.78c-.14,0-.27-.02-.41-.06-74.99-21.31-111.91-73.64-112.27-74.17l-.2-.29-14.6-100.95c-.12-.82.45-1.58,1.27-1.7.82-.12,1.58.45,1.7,1.27l14.5,100.24c3,4.13,39.34,52.52,110.43,72.71.8.23,1.26,1.06,1.03,1.85-.19.66-.79,1.09-1.44,1.09Z"
           id="path83" />
        <path
           class="cls-1"
           d="m118.38,413.88l-16.04-75.37-13.26,42.96-19.04-46.79-5.7,30.42c-.15.81-.93,1.36-1.75,1.2-.81-.15-1.35-.94-1.2-1.75l7.58-40.45,19.72,48.45,14.18-45.95,16.31,76.66,24.77-65.47c.29-.77,1.16-1.16,1.93-.87.77.29,1.17,1.16.87,1.93l-28.39,75.02Z"
           id="path84"
           style="fill:#df5585;fill-opacity:1" />
        <polygon
           class="cls-1"
           points="138.52 342.76 146.79 346.83 146.79 333.93 138.52 342.76"
           id="polygon84" />
        <path
           class="cls-1"
           d="m104.1,310.62c-.13,0-.26-.02-.38-.05-29.06-7.68-47.04-30.46-47.8-31.42-.51-.65-.39-1.6.26-2.1.65-.51,1.6-.39,2.1.26.18.23,18.14,22.95,46.2,30.37.8.21,1.28,1.03,1.07,1.83-.18.67-.79,1.12-1.45,1.12Z"
           id="path85" />
        <path
           class="cls-1"
           d="m88.39,312.1c-.14,0-.28-.02-.43-.06-17.86-5.29-31.81-21.7-32.39-22.4-.53-.63-.45-1.58.18-2.11.63-.53,1.58-.45,2.11.18.14.16,13.97,16.42,30.95,21.45.79.24,1.25,1.07,1.01,1.86-.19.65-.79,1.07-1.44,1.07Z"
           id="path86" />
        <path
           class="cls-1"
           d="m40.15,259.87c-1.49.6-2.66,2-2.33,6,.33,4,4.38,3.96,5.66,3,1.91-1.44,4.45-12.11-3.33-8.99Z"
           id="path87" />
        <path
           class="cls-1"
           d="m166.15,435.8c-1.49.6-2.66,2-2.33,6,.33,4,4.38,3.96,5.66,3,1.91-1.44,4.45-12.11-3.33-8.99Z"
           id="path88" />
      </g>
    </g>
    <path
       class="cls-1"
       d="m111.6,271.4c-5.12,32.24,5.53,66.52,5.53,66.52,0,0,42.52,24.27,98.1,23.36-9.48-24.46-3.16-59.05-3.16-59.05,0,0-61.2,2.13-100.47-30.84Z"
       id="path89"
       style="fill:#df9b55;fill-opacity:1" />
    <g
       id="g96">
      <path
         class="cls-4"
         d="m699.78,244.48s-2.5,64.01-13.38,155.33c-63.66,81.27-139.06,70.38-139.06,70.38l9.2-154.14c44.66-3.14,78.86-18.99,102.63-34.98,26.67-17.94,40.21-36.05,40.6-36.58h0Z"
         id="path90" />
      <path
         class="cls-1"
         d="m699.78,244.48h0c-.39.54-13.92,18.65-40.6,36.59l7.57-74.28s28.13,5.75,33.04,37.68Z"
         id="path91" />
      <g
         id="g95">
        <path
           class="cls-1"
           d="m560.56,457.59c-.65,0-1.25-.43-1.44-1.09-.23-.8.24-1.63,1.03-1.85,70.64-20.07,109.68-61.97,113.47-66.19l11.46-106.7c.09-.82.83-1.42,1.65-1.33.82.09,1.42.83,1.33,1.65l-11.56,107.64-.3.35c-.39.46-40.31,46.18-115.22,67.46-.14.04-.28.06-.41.06Z"
           id="path92" />
        <path
           class="cls-1"
           d="m688.03,275.67c1.49.6,2.66,2,2.33,6s-4.38,3.96-5.66,3c-1.91-1.44-4.45-12.11,3.33-8.99Z"
           id="path93" />
        <path
           class="cls-1"
           d="m562.02,451.6c1.49.6,2.66,2,2.33,6-.33,4-4.38,3.96-5.66,3-1.91-1.44-4.45-12.11,3.33-8.99Z"
           id="path94" />
        <path
           class="cls-1"
           d="m667.43,381.84s10.69-65.49-8.25-67.64c-18.63-2.11-10.55,50.9-20.1,57.27-9.56,6.37-8.62-26.6-20.3-21.82-11.68,4.78-5.08,44.69-17.3,49.47-12.21,4.78-9.67-19.59-20.29-10.03-10.62,9.56-9.36,53.48-9.36,53.48,0,0,61.28-24.55,95.6-60.73Z"
           id="path95"
           style="fill:#df9b55;fill-opacity:1" />
      </g>
    </g>
    <path
       class="cls-1"
       d="m619.66,339.67s-39.08,23.82-83.45,27.65c3.75-12.89,2.98-34.66-4.6-53.25,18.4-3.78,54.64-9.27,87.86-32.59,13.25,33.41.19,58.19.19,58.19Z"
       id="path96"
       style="fill:#df9c55;fill-opacity:1" />
    <g
       id="g104">
      <path
         class="cls-10"
         d="m498.32,443.23c-.06,14.87-.28,28.29-.76,37.87-.13,2.6-.28,4.92-.45,6.9-59.29,14.12-110.72,16.26-153.56,12.68-33.07-2.75-61.02-8.93-83.5-15.63-1.57-18.49-3.21-44.05-4.63-68.67-.07-1.2-.14-2.4-.21-3.58-2.23-39-3.89-74.64-3.89-74.64,6.09.97,12.11,1.84,18.06,2.63,21.8,2.9,42.61,4.65,62.16,5.54,40.59,1.88,75.75.11,103.1-2.63,39.25-3.93,62.4-9.86,62.4-9.86,0,0,1.46,62.08,1.27,109.39Z"
         id="path97"
         style="fill:#0487bf;fill-opacity:1" />
      <path
         class="cls-5"
         d="m286.37,481.27l-6.95-112.31s25.2-9.85,40.08,0c-.7,27.9-1.57,114.12-1.57,114.12l-31.56-1.8Z"
         id="path98"
         style="fill:#f6b69f;fill-opacity:1" />
      <path
         class="cls-1"
         d="m333.88,484.22l-2.64-85.97s19-4.38,34.2,1.87c-.7,27.9,0,85.9,0,85.9l-31.56-1.8Z"
         id="path99"
         style="fill:#55df6d;fill-opacity:1" />
      <path
         class="cls-5"
         d="m382.31,485.13l-2.8-64.02s18.49-4.28,34.2,1.87c-.7,27.9,0,60.1,0,60.1l-31.39,2.05Z"
         id="path100"
         style="fill:#a19ff6;fill-opacity:1" />
      <path
         class="cls-1"
         d="m430.91,482.17l-1.11-38.31s16.17-2.14,31.34-.92c-.7,27.9.95,36.23.95,36.23l-31.18,3Z"
         id="path101"
         style="fill:#6755df;fill-opacity:1" />
      <path
         class="cls-5"
         d="m408.9,377.59c-6,0-12.5-.16-19.58-.52-.83-.04-1.46-.75-1.42-1.57s.76-1.45,1.57-1.42c48.25,2.46,69.49-4.34,84.99-9.31,1.76-.56,3.44-1.1,5.08-1.6.79-.24,1.63.2,1.87,1,.24.79-.21,1.63-1,1.87-1.62.49-3.29,1.03-5.03,1.59-13.45,4.31-31.14,9.98-66.48,9.98Z"
         id="path102" />
      <path
         class="cls-5"
         d="m409.8,388.27c-6,0-12.5-.16-19.58-.52-.83-.04-1.46-.75-1.42-1.57.04-.83.75-1.44,1.57-1.42,48.25,2.46,69.48-4.34,84.99-9.31,1.76-.56,3.44-1.1,5.08-1.6.79-.24,1.63.2,1.87,1,.24.79-.21,1.63-1,1.87-1.62.49-3.29,1.03-5.03,1.59-13.45,4.31-31.15,9.98-66.48,9.98Z"
         id="path103" />
      <path
         class="cls-5"
         d="m410.61,397.83c-6,0-12.5-.16-19.58-.52-.83-.04-1.46-.75-1.42-1.57s.76-1.45,1.57-1.42c48.25,2.46,69.49-4.34,84.99-9.31,1.76-.56,3.44-1.1,5.08-1.6.79-.24,1.63.2,1.87,1,.24.79-.21,1.63-1,1.87-1.62.49-3.29,1.03-5.03,1.59-13.45,4.31-31.14,9.98-66.48,9.98Z"
         id="path104" />
    </g>
    <g
       id="g106">
      <path
         class="cls-1"
         d="m53.3,280.14s-35.81-16.86-44.42-35.81c-5.25-44.04-5.99-69.66-5.99-69.66h0s0,.02,0,.04c.05.3.12,2.64,1.14,6.32,0,.03,0,.06.02.09,1.75,6.37,6.29,16.71,18.22,27.55,6.57,5.97,15.39,12.09,27.23,17.77l3.78,53.71Z"
         id="path105"
         style="fill:#df8655;fill-opacity:1" />
      <path
         class="cls-5"
         d="m22.29,208.67c-11.93-10.83-16.47-21.18-18.22-27.55,0-.03-.02-.06-.02-.09-.76-3.52-1.05-5.98-1.14-6.32,0-.02,0-.04,0-.04h0c2.37-15.41,16.17-14.67,16.17-14.67l3.23,48.65Z"
         id="path106" />
    </g>
  </g>
</svg>
